<svg xmlns="http://www.w3.org/2000/svg" style="display:none;">
    <symbol viewBox="170.4 67.2 44.3 15.4" id="ipos-logo"><path d="M185.6 73.4c-.9-4.2-5-6.9-9.1-6-4.2.9-6.9 5-6 9.1.9 4.2 5 6.9 9.1 6 .7-.1 2.2-.7 2.8-1.1 0 0 2.3.2 2.3.1s-.4-1.8-.4-1.8c1.4-1.7 1.8-4.1 1.3-6.3zm-7.3-3.1c.6 0 1.1.5 1.1 1.1 0 .6-.5 1.1-1.1 1.1-.6 0-1.1-.5-1.1-1.1 0-.6.5-1.1 1.1-1.1zm1.1 8.6c-.6.5-2.5 1.6-3.2-.5-.6-1.8.5-4.5.8-5.1 0-.1.1-.1.2-.1h1.8c.1 0 .3.1.2.3-.4.9-1.5 3.8-.9 4.9.1.3.5.3 1.2 0l.8-.4s-.5.6-.9.9z"/><path d="M189.8 77.6v3.1c0 .6-.5 1.1-1.2 1.1-.6 0-1.2-.5-1.2-1.1v-9.6c0-.6.6-1.2 1.3-1.2h2.5c3.1 0 4.3 1.9 4.3 3.9 0 2.5-1.7 3.9-4.3 3.9l-1.4-.1zm0-2.1h1.4c1.3 0 1.9-.6 1.9-1.8 0-.9-.4-1.8-1.9-1.8h-1.4v3.6zM196.9 77.4v-3.3c0-2.4 1.2-4.4 4.3-4.4 3.1 0 4.3 2 4.3 4.4v3.3c0 2.4-1.5 4.4-4.3 4.4s-4.3-1.9-4.3-4.4zm2.3-3.3v3.3c0 1.3.6 2.3 2 2.3s2-.9 2-2.3v-3.3c0-1.3-.5-2.3-2-2.3-1.4 0-2 .9-2 2.3zM211.6 77.1c-.4-.1-.8-.3-1.2-.4-1.6-.5-3.4-1.1-3.4-3.5 0-2.2 1.5-3.5 3.9-3.5 1 0 3.4.3 3.4 1.5 0 .6-.4 1.1-1.2 1.1-.3 0-.5-.1-.8-.2-.3-.1-.7-.3-1.3-.3-.8 0-1.6.3-1.6 1.3 0 .7.4 1 .7 1.1.4.2.8.4 1.2.4 1.6.5 3.4 1.1 3.4 3.5 0 2.3-1.8 3.7-4.2 3.7-1.2 0-3.6-.4-3.6-1.6 0-.5.5-1.1 1.1-1.1.3 0 .5.1.8.2.4.1.9.3 1.7.3 1.1 0 1.7-.5 1.7-1.4.1-.7-.3-.9-.6-1.1z"/></symbol>
</svg>